<svg xmlns="http://www.w3.org/2000/svg" width="250" height="250" fill="none" viewBox="0 0 250 250">
<!-- SVG created with Arrow, by QuiverAI (https://quiver.ai) -->
  <path d="m110.5 211.6c-6.51 2.15-10.37 7.53-10.37 14.63v1.48l3.08-0.09v-1.39c0-5.43 2.89-9.52 7.88-11.22l-0.59-3.41z" fill="#2D404E"/>
  <path d="m145.9 212.2c7.72 1.32 12.87-2.97 15.52-7.1l3.19 1.87c-4.01 6.35-10.75 10.24-19.01 9.16l0.3-3.93z" fill="#2D404E"/>
  <path d="m127.1 244.5c5.84 0 7.88-4.68 7.88-8.04l-15.42-0.01c0 3.71 2.54 8.05 7.54 8.05z" fill="#5185A8"/>
  <path d="m102.7 226.7c-4.77 0-5.43 4.22-4.79 8.91h2.96c-0.65-3.32 0.29-5.54 2.48-5.54 1.85 0 2.78 1.67 3.06 3.75h2.39c0.35-3.9-1.79-7.12-6.1-7.12z" fill="#88B6CC"/>
  <path d="m142.7 209.7h-27.43c-3.21 0-5.3 2.42-5.3 5.38v6.67c0 8.46 7.31 15.32 16.08 15.32s17.16-6.86 17.16-16.4v-8c0-1.93-0.51-2.97-0.51-2.97z" fill="#C8DDEC"/>
  <path d="m143.2 209.7h-2.03v10.41h2.03c1.92 0 3.47-1.97 3.47-3.89v-2.63c0-1.92-1.55-3.89-3.47-3.89z" fill="#5185A8"/>
  <path d="m114.8 209.7h1.14v10.41h-2.03c-1.92 0-3.47-1.97-3.47-3.89v-2.63c0-1.92 1.55-3.89 4.36-3.89z" fill="#88B6CC"/>
  <path d="m135.7 205.2h-15.96v4.56h15.96v-4.56z" fill="#88B6CC"/>
  <path d="m141.5 174.3h-25.94c-6.63 0-9.71 4.4-9.71 12.21v11.09c0 5.2 3.13 7.57 7.9 7.57h27.2c5.6 0 8.25-3.16 8.25-9.28v-11.17c0-5.82-2.43-10.42-7.7-10.42z" fill="#C8DDEC"/>
  <path d="m105.8 185.8h1.13v11.82h-1.13c-2.39 0-3.25-1.83-3.25-3.75v-4.32c0-1.92 0.86-3.75 3.25-3.75z" fill="#F15A29"/>
  <path d="m149.2 185.8h-1.13v11.82h1.13c2.39 0 3.69-1.83 3.69-3.75v-4.32c0-1.92-1.3-3.75-3.69-3.75z" fill="#F15A29"/>
  <path d="m135.2 180.6h-16.09c-6.12 0-8.81 5.12-8.81 10.42 0 5.82 3.6 9.87 8.64 9.87h15.04c5.6 0 9.83-3.6 9.83-10.27 0-4.96-3.08-10.02-8.61-10.02z" fill="#253E51"/>
  <path d="m118.6 192.5c2.09 0 2.81-1.74 2.81-3.06 0-1.78-1.12-2.38-2.3-2.38-1.58 0-2.64 1.18-2.64 2.55 0 1.35 0.83 2.89 2.13 2.89z" fill="#78C5ED"/>
  <path d="m136 192.5c2.09 0 2.81-1.74 2.81-3.06 0-1.78-1.12-2.38-2.3-2.38-1.58 0-2.64 1.18-2.64 2.55 0 1.35 0.83 2.89 2.13 2.89z" fill="#78C5ED"/>
  <path d="m123.9 194.2c0.98 1.47 2.28 2.98 4.16 2.98 1.92 0 3.19-1.43 4.02-2.98l-1.46-1.46c-0.82 1.69-1.65 2.26-2.64 2.26-1.18 0-2.01-0.94-2.78-2.26l-1.3 1.46z" fill="#78C5ED"/>
  <path d="m133.8 213.3h-13.81c-1.52 0-2.25 0.99-2.25 2.34v7.38c0 1.35 0.73 2.08 2.08 2.08h13.98c1.52 0 2.25-0.73 2.25-2.17v-7.16c0-1.44-0.73-2.47-2.25-2.47z" fill="#176185"/>
  <path d="m132.5 219.7c2.09 0 2.23-1.22 2.23-2.54s-0.83-2.15-2.01-2.15c-1.58 0-2.41 0.92-2.41 2.29 0 1.35 0.58 2.4 2.19 2.4z" fill="#F15A29"/>
  <path d="m132.3 223.7c1.58 0 1.91-0.72 1.91-1.67 0-1.18-0.83-1.75-1.82-1.75-1.35 0-2.03 0.72-2.03 1.85 0 1.07 0.48 1.57 1.94 1.57z" fill="#2DC44D"/>
  <path d="m127.1 170.8c-3.22 0-5.15 1.6-5.74 3.5h11.47c-0.59-1.9-2.51-3.5-5.73-3.5z" fill="#88B6CC"/>
  <path d="m127.6 168.2h-0.98v3h0.98v-3z" fill="#F15A29"/>
  <path d="m127.1 169c2.68 0 3.2-1.92 3.2-3.69s-1.21-2.95-2.85-2.95c-1.92 0-3.17 1.32-3.17 3.09s1.08 3.55 2.82 3.55z" fill="#F15A29"/>
  <path d="m176 172c-10.92 0-17.42 9.77-17.42 17.81 0 9.67 7.38 17.05 17.5 17.05s16.62-9.4 16.62-17.27c0-8.97-7.38-17.59-16.7-17.59z" fill="#F9480B"/>
  <path d="m184.8 183.7h-15.04l-0.46-2.3c-0.1-0.47-0.52-0.79-0.99-0.79h-2.71v2.02h1.9l2.8 13.28c0.1 0.47 0.52 0.8 1 0.8h11.6c0.48 0 0.9-0.33 1-0.8l1.91-10.74c0.15-0.72-0.4-1.47-1.01-1.47zm-11.79 10.98-0.7-3.08h3.59v3.08h-2.89zm3.92 0v-3.08h2.98l-0.54 3.08h-2.44zm3.37-4.6h-8.3l-0.7-3.08h9.6l-0.6 3.08zm0.98-4.35h-10.33l-0.65-1.01h11.8l-0.82 1.01z" fill="#FEFFFE"/>
  <path d="m172.9 199.9c1.26 0 1.8-0.87 1.8-1.78 0-1.1-0.83-1.75-1.75-1.75-1.18 0-1.91 0.87-1.91 1.83 0 0.95 0.67 1.7 1.86 1.7z" fill="#FEFFFE"/>
  <path d="m181.7 199.9c1.26 0 1.8-0.87 1.8-1.78 0-1.1-0.83-1.75-1.75-1.75-1.18 0-1.91 0.87-1.91 1.83 0 0.95 0.67 1.7 1.86 1.7z" fill="#FEFFFE"/>
  <path d="m163.4 208.1c4.35 0 5.34-4.2 3.42-7.03-1.01-1.53-3.38-2.37-5.18-2.25-1.4 0.1-3.07 1.1-3.07 4.25s1.52 5.03 4.83 5.03z" fill="#78C5ED"/>
  <path d="m95.94 186.1-3.62-0.8c-0.44-1.54-0.89-2.7-1.83-3.99l2.24-3.09c0.31-0.44 0.28-0.85-0.05-1.18l-3.12-2.34c-0.44-0.4-0.85-0.4-1.24-0.07l-3.01 2.34c-1.18-0.66-2.43-1.2-3.83-1.47l0.56-2.59c0-0.54-0.33-1.16-0.88-1.16h-4.35c-0.54 0-0.93 0.45-1 0.96l-0.75 2.79c-1.45 0.34-2.85 0.88-4.1 1.61l-2.25-2.03c-0.44-0.34-1.1-0.31-1.44 0.13l-2.86 3.22c-0.34 0.44-0.34 1.05 0 1.49l1.92 2.5c-0.89 1.32-1.62 2.78-2.06 4.36l-2.3 0.34c-0.54 0.1-0.78 0.54-0.78 1.08v3.7c0 0.54 0.34 1.05 0.88 1.05l2.54 0.44c0.4 1.68 1.13 3.26 2.11 4.65l-1.71 2.06c-0.34 0.44-0.27 1.1 0.17 1.5l3.05 2.5c0.44 0.4 1.05 0.33 1.49 0l2.2-1.9c1.36 0.86 2.86 1.52 4.5 1.9l-0.44 1.51c0 0.69 0.51 1.24 1.13 1.24h4.05c0.66 0 1.2-0.24 1.3-0.96l0.86-3.09c1.55-0.44 2.97-1.2 4.25-2.15l2.24 2.29c0.44 0.44 1.1 0.37 1.5-0.07l2.91-3.29c0.4-0.44 0.34-1.16-0.1-1.59l-1.8-2.1c0.79-1.39 1.41-2.88 1.7-4.52l1.92-0.27c0.55-0.1 0.65-0.79 0.65-1.33v-2.57c0-0.55-0.1-0.99-0.65-1.1zm-17.02 10.61c-5.21 0-7.48-4.64-7.48-7.46 0-4.35 3.52-7.1 7.24-7.1 4.77 0 7.53 3.7 7.53 7.17 0 3.83-3.08 7.39-7.29 7.39z" fill="#5185A8"/>
  <path d="m174.9 110.3c-2-17.22-12.8-55.53-47.78-55.53-30.12 0-40 22.11-43.95 34.35-12.97 0-26.37 10.9-26.37 40.71 0 11.4 9.91 22.57 21.6 22.57h95.47c12.04 0 20.74-10.64 20.74-21.54 0-10.15-7.81-20.56-19.71-20.56z" fill="#58BAFE"/>
  <path d="m127.1 54.73c-21.94 0-36.05 12.18-42.46 32.18l4.19 0.83c6.25-15.72 18.28-27.62 38.27-27.62 18.99 0 31.78 11.8 38.48 27.69l4.19-0.98c-6.43-19.16-20.37-32.1-42.67-32.1z" fill="#2D404E"/>
  <path d="m85.26 85.92h1.5l6.02-0.61c2.95 0 4.33 2.6 3.41 5.42l-7.92 23.43c-0.99 2.99-6.16 3.26-8.25-1.54l-2-2c-4.11-2.5-6.5-7.53-4.41-12.33l3.2-8.04c1.46-3.22 4.75-4.33 8.45-4.33z" fill="#5185A8"/>
  <path d="m169 85.65 2.32 0.61c3.95 0.47 6.63 2.69 8.08 6.45l2.95 7.9c1.7 5.03-0.95 10.56-5.45 12.49l-2.6 1.86c-1.6 2.15-8.1 1.95-14.2-24.44-1.18-4.4 0.98-5.68 3.8-5.68l5.1 0.81z" fill="#5185A8"/>
  <path d="m161 85.41c-2.75 0.95-3.24 2.5-2.42 4.9l7.92 24.5c1.39 3.63 7.33 2.34 7.33-1.06l-6.5-26.35c-0.62-2.09-3.16-2.98-6.33-1.99z" fill="#253E51"/>
  <path d="m90.25 85.92-10.33 26.19c-0.82 3.05 2.81 5.87 6.1 4.01 0.99-0.51 1.61-1.5 1.95-2.61l8.15-24.15c1.11-3.44-3.39-5.59-5.87-3.44z" fill="#253E51"/>
  <path d="m143.3 136.9 5.91-0.41c2.09 0 2.78 0.82 3.29 1.74 9.18-2.42 18.39-9.28 18.39-21.52v-2.92h3.05v3.63c0 12.51-9.25 21.72-21.49 23.87-0.54 1.55-1.56 2.44-3.56 2.58l-5.12 0.62c-4.98 0.44-5.37-6.84-0.47-7.59z" fill="#2D404E"/>
  <path d="m103.4 116.2c-4.5 0-5.8 1.7-5.8 3.79s2.29 3.64 6.19 3.64c3.55 0 4.9-1.93 4.9-3.92s-1.35-3.51-5.29-3.51z" fill="#FEFFFE" opacity=".3"/>
  <path d="m149.4 116.2c-3.45 0.54-4.9 1.52-4.9 3.51s2.05 3.92 5.27 3.92c4.08 0 5.76-2.54 5.76-4.36 0-2.16-1.7-3.68-6.13-3.07z" fill="#FEFFFE" opacity=".3"/>
  <path d="m113.5 106.3c-4.5 0-5.12 2.6-5.12 4.15 0 2.71 1.57 4.56 4.75 4.56 3.02 0 4.42-2.26 4.42-4.7 0-1.99-1.3-4.01-4.05-4.01z" fill="#2D404E"/>
  <path d="m140 106.3c-4.11 0-5.1 2.6-5.1 4.15 0 2.71 1.83 4.56 4.58 4.56 3.12 0 4.47-2.26 4.47-4.7 0-1.99-1.25-4.01-3.95-4.01z" fill="#2D404E"/>
  <path d="m118 118.8c-1.67 0-1.43 1.48-1.23 2.6 0.89 4.59 3.85 7.41 9.82 7.41 5.53 0 8.88-4.9 9.32-8.4 0.15-1.12-0.74-2.04-1.85-1.97l-16.06 0.36z" fill="#2D404E"/>
  <path d="m120 126.1c1.7 1.77 3.6 2.43 6.63 2.43 2.68 0 4.55-1.08 5.9-2.6-1.35-2-3.49-2.6-6.42-2.6-2.68 0-4.76 0.92-6.11 2.77z" fill="#F15A29"/>
  <path d="m174.9 91.76 1.3 5.17c0.34 1.22 0.88 1.36 1.5 1.15 0.92-0.34 1.11-1.01 0.82-2.07l-1.67-4.8c-0.44-1.25-2.43-1.04-1.95 0.55z" fill="#FEFFFE" opacity=".3"/>
  <path d="m162.4 6.21h-0.03c-12.38 0-21.78 9.84-21.78 19.98 0 6.6 2.44 12.16 6.2 15.66l-0.42 7.86 9-5h3.15v-13.28h-5.93v-5.42h5.93v-4.8c0-5.2 3.32-7.29 7.67-7.29 2.02 0 3.51 0.14 3.95 0.21v5.09l-3.37 0.01c-2.29 0-2.38 1.32-2.38 3.02v3.76h5.17l-0.82 5.42h-4.35v15.18c10.7-1.45 17.41-10.66 17.41-20.87 0-10.48-7.91-19.53-19.4-19.53z" fill="#1877E8"/>
  <path d="m220.9 63.76c-12.04 0-21.95 10.15-21.95 21.48 0 4.93 1.46 9.53 4 13.12l-2.39 7.59 9.25-3.32c3.22 1.89 6.54 2.68 10.4 2.68 12.03 0 21.43-10.34 21.43-20.89 0-10.78-8.93-20.66-20.74-20.66z" fill="#32C766"/>
  <path d="m221.9 70.76c-8.59 0-14.19 7.45-14.19 14.45 0 2.92 0.69 5.56 1.9 7.75l-1.9 5.47 5.89-2.03c2.47 1.42 4.91 2.03 7.51 2.03 7.92 0 13.79-7.32 13.79-14.52 0-7.07-6.02-13.15-13-13.15zm-0.37 24.96c-2.68 0-4.38-0.89-6.3-2.11l-5.23 1.5 1.6-5c-1.35-2.3-1.79-3.85-1.79-6.34 0-6.12 5.39-10.92 11.77-10.92 6.22 0 11.17 5.26 11.17 11.33 0 6.34-5.45 11.54-11.22 11.54z" fill="#FEFFFE"/>
  <path d="m215.1 79.88c0.59-1.46 1.99-2.07 2.71-1.73s1.9 3.09 2.05 3.56c0.14 0.48-0.3 1.24-1.02 1.93-0.49 0.47 0.96 2.5 2.56 3.76 1.92 1.45 2.69 1.11 3.41 0.34 0.72-0.76 1.38-1.13 2.88 0.07 1.5 1.19 1.43 1.55 0.71 2.57-0.66 0.96-3.2 1.78-6.41 0.14-3.22-1.64-6.72-6.27-6.89-7.57-0.21-1.54-0.41-2.19 0-3.07z" fill="#FEFFFE"/>
  <path d="m15.11 71.11h31.13c5.77 0 7.69 5.7 7.69 8.72v13.21c0 5.09-3.02 9.25-8.62 9.25v7.97c0 0.76-0.69 0.83-1.35 0.21l-9.4-8.18h-19.65c-5.77 0-7.47-5.63-7.47-8.45v-12.81c0-4.6 3.08-9.92 7.67-9.92z" fill="#64B9F9"/>
  <path d="m19.22 89.66c2.49 1.82 5.49-0.3 3.69-4.25-2-2.5-5.55-0.99-5.89 1.2-0.25 1.54 0.74 2.3 2.2 3.05z" fill="#FEFFFE"/>
  <path d="m29.92 89.36c2.49 1.82 5.49-0.31 4.4-3.81-1.71-2.98-5.61-1.99-6.36 0.51-0.44 1.55 0.5 2.61 1.96 3.3z" fill="#FEFFFE"/>
  <path d="m40.89 89.02c2.49 2.19 5.35 0 4.17-3.54-1.64-2.77-5.33-1.71-6.05 0.58-0.49 1.55 0.42 2.37 1.88 2.96z" fill="#FEFFFE"/>
  <path d="m103.4 15.26v21.87c0 5.63-3.31 8.99-6.76 8.99l0.05 7.32-0.59 0.07-9.04-7.69h-14.89c-5.52 0-7.08-5.06-7.08-7.88v-21.93c0-4.87 3.02-7.92 7.13-7.92h23.66c4.82 0 7.52 3.82 7.52 7.17z" fill="url(#paint0_linear_301_11160)"/>
  <path d="m76.91 13.02h15.21c4.2 0 6.69 2.89 6.69 7.05v13.19c0 4.48-2.76 6.98-6.35 6.98h-14.79c-3.86 0-6.95-2.7-6.95-7.18v-12.65c0-4.5 2.79-7.39 6.19-7.39z" fill="#FEFFFE"/>
  <path d="m77.67 15.31h13.64c3.18 0 5.01 2.3 5.01 5.42v11.52c0 3.56-2.2 5.56-4.96 5.56h-12.95c-3.05 0-5.29-2.2-5.29-5.76v-10.91c0-3.56 2.24-5.83 4.55-5.83z" fill="url(#paint1_linear_301_11160)"/>
  <path d="m84.72 19.22c-4.77 0-7.05 3.89-7.05 6.94 0 3.76 3.02 6.85 6.88 6.85 4.31 0 7.06-3.5 7.06-6.93 0-3.57-2.85-6.86-6.89-6.86zm-0.05 11.49c-2.96 0-4.45-2.15-4.45-4.42 0-2.5 1.92-4.66 4.6-4.66 2.85 0 4.56 2.3 4.56 4.53 0 2.5-1.93 4.55-4.71 4.55z" fill="#FEFFFE"/>
  <path d="m92.22 20.07c0.99 0 1.41-0.69 1.09-1.92-0.7-1.09-2.25-0.61-2.59 0.38-0.2 0.69 0.27 1.3 1.5 1.54z" fill="#FEFFFE"/>
  <path d="m204.5 17.92c-4.45 0-6.54 3.79-6.54 6.42 0 3.5 2.58 5.79 5.85 5.79 4.11 0 6.21-3.63 6.21-6.27 0-3.25-2.71-5.94-5.52-5.94z" fill="#F7C352"/>
  <path d="m204.3 20.01c-2.86 0-4.16 2.57-4.16 4.3 0 2.39 1.9 3.94 4.21 3.94 2.91 0 4.36-2.64 4.36-4.49 0-2.3-2.04-3.75-4.41-3.75z" fill="#F19106"/>
  <path d="m206.3 22.71-1.99 2.22-1.25-1.31c-0.82-0.85-2 0.24-1.18 1.23l1.77 2.06c0.39 0.44 1.03 0.41 1.4-0.07l2.56-3.08c0.77-1.05-0.41-1.97-1.31-1.05z" fill="#F7C352"/>
  <path d="m20.67 134.8c-5.04 0-6.64 4.6-6.64 6.62 0 4.36 2.81 6.22 6.38 6.22 5.2 0 6.5-4.18 6.5-6.47 0-3.64-2.76-6.37-6.24-6.37z" fill="#F7C352"/>
  <path d="m20.41 136.9c-3.22 0-4.4 2.83-4.4 4.29 0 2.82 2.02 4.14 4.46 4.14 3.45 0 4.54-2.98 4.54-4.75 0-2.39-2-3.68-4.6-3.68z" fill="#F19106"/>
  <path d="m22.23 139.6-1.82 2.22-1.12-1.16c-0.92-0.96-2 0.1-1.08 1.09l1.6 1.86c0.49 0.54 1.08 0.47 1.52-0.15l2.19-2.94c0.72-0.99-0.46-1.84-1.29-0.92z" fill="#F7C352"/>
  <path d="m40.79 151.9c-7.58 0-10.73 6.74-10.73 11.34 0 6.8 4.85 9.95 10.46 9.95 7.82 0 10.5-6.73 10.5-10.37 0-6.05-4.9-10.92-10.23-10.92z" fill="#F7C352"/>
  <path d="m40.72 154.6c-5.66 0-7.63 4.87-7.63 7.5 0 4.8 3.45 7.1 7.56 7.1 5.94 0 8.03-4.9 8.03-7.85 0-4.23-3.55-6.75-7.96-6.75z" fill="#F19106"/>
  <path d="m41.11 158.7-1.7 2.63-2.81 0.62c-0.89 0.24-1.04 1.5-0.22 1.94l2.44 1.38 0.59 2.5c0.2 0.82 1.26 1.03 1.8 0.41l2.02-2.02 2.6 0.34c0.83 0.13 1.48-0.85 0.98-1.74l-1.3-2.3 0.83-2.36c0.34-0.99-0.73-1.81-1.72-1.4h-3.51z" fill="#F7C352"/>
  <path d="m229.5 138.7c-8.07 0-10.77 6.59-10.77 10.38 0 6.93 4.77 10.25 10.1 10.25 7.58 0 11.03-6.12 11.03-10.52 0-5.9-4.91-10.11-10.36-10.11z" fill="#F7C352"/>
  <path d="m229.2 141.1c-5.45 0-7.65 4.8-7.65 7.51 0 4.6 3.4 7.1 7.3 7.1 5.6 0 8.07-4.66 8.07-7.71 0-3.99-3.29-6.9-7.72-6.9z" fill="#F19106"/>
  <path d="m230.8 146v-0.56h-1.76v0.83c-1.55 0.27-2.64 1.26-2.64 2.78 0 1.61 1.25 2.3 2.69 2.77 0.92 0.34 1.36 0.54 1.36 1.23 0 0.54-0.56 0.88-1.36 0.81-0.76-0.06-1.35-0.4-2.07-0.88l-0.99 1.64c0.76 0.54 1.68 0.92 2.67 1.05v1.06h1.75v-1.19c1.55-0.37 2.51-1.48 2.51-2.9 0-1.9-1.6-2.59-2.78-2.96-0.82-0.34-1.26-0.54-1.26-1.1 0-0.47 0.59-0.74 1.31-0.68 0.66 0.07 1.1 0.27 1.76 0.64l0.82-1.71c-0.61-0.44-1.3-0.72-2.01-0.83z" fill="#F7C352"/>
  <path d="m33.61 37.06c-2 0.75-3.3 2.36-3.89 2.98-1.3-1.09-3-2.23-5.76-1.54-3.29 0.92-5.22 7.11-1.27 10.2 3.71 3.02 5.58 2.81 9.72 4.13 0.72 0.24 0.82-0.1 1.31-0.82 2.39-3.44 5-6.8 4.9-10.9-0.1-3.5-2.24-4.95-5.01-4.05z" fill="#F14612"/>
  <path d="m181.7 57.75c-3.22 0.54-5.5 3.9-2.74 8.7 1.8 3.29 3.14 4.28 3.74 4.66 3.45-1.45 5.7-2.21 7.3-3.5 3.12-2.16 2.03-7.22-1.19-7.91-1.6-0.34-2.59 0.14-3.57 0.76-0.59-1.32-1.58-2.93-3.54-2.71z" fill="#F14612"/>
  <path d="m40.91 63.99c5.4-10.48 10-16.92 16.71-21.38" stroke="#A9C1D1" stroke-linecap="round" stroke-width="1.5"/>
  <path d="m48.83 60.67c2.19-3.96 4.44-6.88 7.56-9.45" stroke="#A9C1D1" stroke-linecap="round" stroke-width="1.5"/>
  <path d="m187.2 39.63c5.17 3.82 10.07 8.53 11.89 11.28" stroke="#A9C1D1" stroke-linecap="round" stroke-width="1.5"/>
  <path d="m194.4 38.08c6.34 5.03 12.98 13.53 15.42 19.15" stroke="#A9C1D1" stroke-linecap="round" stroke-width="1.5"/>
  <path d="m118 16.86c5.17-0.27 11.1-0.27 16.4 0.27" stroke="#A9C1D1" stroke-linecap="round" stroke-width="1.5"/>
  <path d="m110.6 23.62c4.6-1.25 9.69-1.83 14.39-1.56" stroke="#A9C1D1" stroke-linecap="round" stroke-width="1.5"/>
  <path d="m70.01 61.21-1.3 4.03-3.9 1.62 2.44 2.19v3.96c0 0.62 0.49 0.96 1.08 0.55l3.52-2.25 2.95 1.45c0.92 0.47 1.74-0.25 1.4-1.24l-1.4-3.22 1.92-2.6c0.66-0.89 0.27-1.78-0.91-1.64l-3.15 0.37-1.7-3.39c-0.24-0.54-0.83-0.41-0.95 0.17z" fill="#F7C352"/>
  <path d="m220.3 35.51-2.39 5.7-4.6 1.7c-0.92 0.34-0.85 0.95 0 1.32l4.73 2.16 2.26 3.53c0.44 0.69 1.1 0.55 1.33-0.27l1.5-4.73 4.59-1.26c1.18-0.34 1.18-1.23 0-1.7l-4.11-1.65-1.55-4.87c-0.39-1.08-1.32-1.02-1.76 0.07z" fill="#64B9F9"/>
  <path d="m213.4 178.9-1.93 4.93-4.41 1.39c-1.09 0.37-1.16 1.29-0.07 1.73l3.9 1.25 0.54 3.02c0.24 1.25 1.06 1.18 1.55-0.07l1.45-3.63 2.24-1.82c1.09-0.75 0.89-1.57-0.51-2.01-2.15-0.72-2.76-2.33-2.76-4.79z" fill="#F7D086"/>
  <path d="m42.88 186.3-1.18 3.49-3.79 1.22 3.79 1.59 1.55 3.5c0.44 1.06 1.1 0.79 1.34-0.4l0.62-3.1 2.6-0.91c1.18-0.48 1.01-1.3-0.39-1.77l-2.24-0.82-1.25-2.76c-0.34-0.92-0.78-0.85-1.05-0.04z" fill="#F14612"/>
  <path d="m216.2 117.1c0.89-1.12 0.89-1.97-0.47-1.97-2.1 0-5.65 5.75-6.19 7.91-1.45 7.29-6.45 12.09-14.61 12.09v3.76c7.18 0 14.37-3.76 17.82-12.77 3.99 0 12.92-0.44 13.46-5.34 0-3.53-2.38-4.69-4.48-4.08l-5.53 0.4z" fill="#2D404E"/>
  <path d="m36.01 117.1c-0.9-1.12-1.82-1.63-3.74-1.05-3.22 0-6.98 1.19-6.46 5.75 0.82 3.36 4.62 4.18 6.55 4.18l5.45 0.44c0.99 0 0.1-0.27 0.64 0 1.92 5.66 7.57 12.59 16.97 12.59h2.44v-3.88c-8.55 0-14.15-6.4-15.13-12.23-0.44-3.89-2.46-7.29-5.06-7.77-2.06-0.44-2.16 0.48-1.66 1.97z" fill="#2D404E"/>
  <defs>
    <linearGradient id="paint0_linear_301_11160" x1="70.68" x2="93.65" y1="9.041" y2="48.71" gradientUnits="userSpaceOnUse">
      <stop stop-color="#6135C9" offset="0"/>
      <stop stop-color="#9635C9" offset=".5028"/>
      <stop stop-color="#F24A5B" offset=".9913"/>
    </linearGradient>
    <linearGradient id="paint1_linear_301_11160" x1="72.17" x2="86.16" y1="15.84" y2="38.96" gradientUnits="userSpaceOnUse">
      <stop stop-color="#FEC940" offset="0"/>
      <stop stop-color="#F37939" offset=".5215"/>
      <stop stop-color="#E93E39" offset="1"/>
    </linearGradient>
  </defs>
</svg>